HIERARCHY
ROOT Hips
{
     OFFSET 1.88212 96.90440 -13.34250
     CHANNELS 6 Xposition Yposition Zposition Zrotation Xrotation Yrotation
     JOINT Spine
     {
          OFFSET 0.00000 11.89050 0.00000
          CHANNELS 3 Zrotation Xrotation Yrotation
          JOINT Spine1
          {
               OFFSET -0.00000 25.65740 0.12766
               CHANNELS 3 Zrotation Xrotation Yrotation
               JOINT HEad
               {
                    OFFSET 0.00000 8.73416 0.01134
                    CHANNELS 3 Zrotation Xrotation Yrotation
                    End Site
                    {
                         OFFSET -0.29000 12.77420 2.51395
                    }
               }
               JOINT LeftShoulder1
               {
                    OFFSET 8.99000 -0.36225 -0.22000
                    CHANNELS 3 Zrotation Xrotation Yrotation
                    JOINT LeftArm
                    {
                         OFFSET 10.28270 -0.00338 0.32212
                         CHANNELS 3 Zrotation Xrotation Yrotation
                         JOINT LeftForeArm
                         {
                              OFFSET 32.76690 0.09914 -1.42434
                              CHANNELS 3 Zrotation Xrotation Yrotation
                              JOINT LeftHand
                              {
                                   OFFSET 27.56430 0.08536 1.02216
                                   CHANNELS 3 Zrotation Xrotation Yrotation
                                   End Site
                                   {
                                        OFFSET 16.74430 -0.60000 1.50291
                                   }
                              }
                         }
                    }
               }
               JOINT RightShoulder
               {
                    OFFSET -8.99000 -0.36225 -0.22000
                    CHANNELS 3 Zrotation Xrotation Yrotation
                    JOINT RightArm
                    {
                         OFFSET -10.28270 -0.00338 0.32212
                         CHANNELS 3 Zrotation Xrotation Yrotation
                         JOINT RightForeArm
                         {
                              OFFSET -32.89710 0.09914 -1.42434
                              CHANNELS 3 Zrotation Xrotation Yrotation
                              JOINT RightHand
                              {
                                   OFFSET -27.49210 0.08536 1.02216
                                   CHANNELS 3 Zrotation Xrotation Yrotation
                                   End Site
                                   {
                                        OFFSET -16.63120 -0.60000 1.50291
                                   }
                              }
                         }
                    }
               }
          }
     }
     JOINT LeftUpLeg
     {
          OFFSET 8.94580 -8.66707 0.10165
          CHANNELS 3 Zrotation Xrotation Yrotation
          JOINT LeftLeg
          {
               OFFSET 0.00000 -44.42270 1.37270
               CHANNELS 3 Zrotation Xrotation Yrotation
               JOINT LeftFoot
               {
                    OFFSET -0.25355 -42.09240 -1.46059
                    CHANNELS 3 Zrotation Xrotation Yrotation
                    JOINT LeftToes
                    {
                         OFFSET -0.04000 -4.41509 8.49910
                         CHANNELS 3 Zrotation Xrotation Yrotation
                         End Site
                         {
                              OFFSET 0.08000 -0.04745 9.77979
                         }
                    }
               }
          }
     }
     JOINT RightUpLeg
     {
          OFFSET -8.94580 -8.66707 0.10165
          CHANNELS 3 Zrotation Xrotation Yrotation
          JOINT RightLeg
          {
               OFFSET 0.00000 -44.42270 1.37270
               CHANNELS 3 Zrotation Xrotation Yrotation
               JOINT RightFoot
               {
                    OFFSET 0.25355 -42.09240 -1.46059
                    CHANNELS 3 Zrotation Xrotation Yrotation
                    JOINT RightToes
                    {
                         OFFSET 0.04000 -4.41509 8.49910
                         CHANNELS 3 Zrotation Xrotation Yrotation
                         End Site
                         {
                              OFFSET -0.08000 -0.13745 9.77979
                         }
                    }
               }
          }
     }
}
MOTION
Frames: 8
Frame Time: 0.01667
33.04451 92.84363 -26.87000 7.22117 8.14442 147.98135 -8.49588 23.04996 -4.73784 -0.00211 0.00906 0.00076 -19.45373 25.55263 24.14185 -2.59525 9.69432 9.29223 -140.00746 -65.31223 -116.24167 -24.58959 60.76402 -92.24237 15.57074 8.89527 -6.11712 14.32740 12.93389 8.82213 83.02767 -2.16408 73.68243 -0.40152 27.64613 97.72916 17.27746 12.31084 10.22497 18.93494 -4.14634 -22.64109 -34.08723 4.61743 72.34724 -6.70137 0.00182 0.00011 12.57553 -23.03823 -58.08626 -30.33551 5.22520 3.66130 41.81977 19.10221 -32.09207 -25.83379 0.02855 0.00959 9.44825 -27.53828 11.30398 
32.54215 93.10278 -27.27733 7.46354 8.02677 147.85818 -8.18264 23.24438 -3.88574 -0.00202 0.00856 0.00008 -18.07517 25.12543 22.42635 -2.43016 9.69133 8.59110 -139.95425 -64.81905 -116.31944 -23.82722 60.85535 -92.95141 15.70609 8.94915 -5.97592 14.62760 12.72406 7.93070 83.18650 -2.21893 73.97541 -1.13411 27.61169 98.76570 17.23327 12.17272 10.04170 18.53955 -3.75768 -22.06104 -33.27481 4.76836 72.00549 -7.42372 0.00166 0.00086 13.21465 -23.08494 -58.32694 -30.55155 3.51661 3.35546 43.74409 22.02817 -31.11301 -31.35909 0.21146 0.06938 13.21316 -28.55480 9.30596 
32.08935 93.37817 -27.61663 7.71011 7.92865 147.84065 -7.85404 23.47373 -3.09756 -0.00187 0.00812 -0.00052 -16.78662 24.66545 20.81186 -2.26781 9.65608 7.92396 -139.86134 -64.24816 -116.37093 -23.03433 60.95679 -93.69439 15.83519 9.00850 -5.76516 14.91025 12.49200 7.10001 83.38091 -2.31118 74.30168 -1.85782 27.58087 99.79069 17.14092 12.02903 9.87460 18.13232 -3.41300 -21.45609 -32.35337 4.98650 71.51439 -8.17067 0.00138 0.00167 13.87129 -22.96035 -58.53543 -30.86995 2.04498 4.30022 45.49191 23.18224 -31.38250 -28.97567 -0.01496 -0.01331 9.64427 -28.39004 8.20784 
31.68776 93.66085 -27.89121 7.95255 7.84922 147.92944 -7.51167 23.72452 -2.38386 -0.00167 0.00776 -0.00105 -15.59821 24.19040 19.30678 -2.10211 9.59683 7.29167 -139.74257 -63.60252 -116.38979 -22.21171 61.06560 -94.46279 15.96539 9.03968 -5.56126 15.16770 12.24588 6.33877 83.60996 -2.44224 74.66510 -2.57771 27.54675 100.79324 17.08295 11.92532 9.67078 17.71965 -3.10722 -20.83650 -31.33570 5.24956 70.87347 -8.93730 0.00098 0.00246 14.54389 -22.68208 -58.71163 -31.18514 0.90414 6.35483 47.08364 22.91505 -32.50603 -30.24211 0.02901 0.00131 10.18227 -28.14195 7.67184 
31.33686 93.94843 -28.10419 8.18462 7.78876 148.12248 -7.15524 23.98598 -1.75184 -0.00147 0.00748 -0.00150 -14.51693 23.71631 17.91600 -1.93316 9.52118 6.69682 -139.60339 -62.88752 -116.36698 -21.36962 61.17983 -95.24167 16.09907 9.05959 -5.30944 15.39510 11.99333 5.64489 83.87043 -2.60540 75.06748 -3.29755 27.50488 101.76278 17.00074 11.81731 9.48172 17.30494 -2.83288 -20.21408 -30.23711 5.53550 70.08689 -9.71751 0.00052 0.00316 15.23124 -22.26937 -58.85091 -31.42243 0.15364 9.40305 48.46413 21.42924 -34.24387 -29.48064 0.01183 -0.00283 9.06125 -27.58235 7.57706 
31.03342 94.23783 -28.25467 8.39984 7.74550 148.41209 -6.78594 24.24660 -1.20197 -0.00130 0.00726 -0.00185 -13.54642 23.25715 16.64130 -1.76680 9.43245 6.14021 -139.44398 -62.11519 -116.29327 -20.52309 61.29999 -96.01440 16.24295 9.05191 -5.05929 15.59049 11.73775 5.01275 84.15577 -2.79053 75.50376 -4.02031 27.45486 102.68851 16.94046 11.72520 9.27821 16.89030 -2.58667 -19.59618 -29.07519 5.82365 69.16429 -10.50309 0.00006 0.00374 15.93020 -21.74393 -58.95027 -31.54441 -0.44298 12.22892 49.42283 19.94340 -35.82996 -29.50485 0.01910 0.00342 9.00319 -26.91118 7.72067 
30.77465 94.52247 -28.34279 8.59225 7.71851 148.78894 -6.40726 24.49724 -0.73191 -0.00120 0.00707 -0.00215 -12.68763 22.82488 15.48221 -1.61156 9.32978 5.61700 -139.27112 -61.30600 -116.16839 -19.68787 61.42924 -96.76355 16.39483 9.03241 -4.78139 15.74822 11.47824 4.44085 84.46127 -2.98979 75.96191 -4.74603 27.39688 103.56038 16.87356 11.62121 9.09491 16.47708 -2.36820 -18.98868 -27.86930 6.09689 68.12000 -11.28544 -0.00036 0.00416 16.63476 -21.11999 -59.01161 -31.56609 -0.86772 14.83325 50.06419 18.52862 -37.25005 -28.96731 0.01654 0.00304 8.57243 -26.14032 8.01824 
30.56122 94.79316 -28.37222 8.75632 7.70762 149.24222 -6.02566 24.73044 -0.33762 -0.00117 0.00691 -0.00247 -11.93945 22.42961 14.43734 -1.47618 9.21277 5.11666 -139.09657 -60.48457 -115.99969 -18.86908 61.56701 -97.48178 16.54753 9.00540 -4.51122 15.85541 11.21387 3.93212 84.78710 -3.19728 76.42725 -5.47224 27.33106 104.36849 16.83059 11.51905 8.91416 16.06695 -2.17782 -18.39525 -26.63993 6.34374 66.97026 -12.05848 -0.00075 0.00443 17.33719 -20.40459 -59.03875 -31.50498 -1.11374 17.21841 50.46095 17.21124 -38.48526 -28.58839 0.01793 0.00502 8.42266 -25.36962 8.35182 
